<svg width="662" height="495" viewBox="0 0 662 495" fill="none" xmlns="http://www.w3.org/2000/svg">
<path fill-rule="evenodd" clip-rule="evenodd" d="M46.6024 146.013C46.4605 146.276 45.4196 146.539 44.3317 146.539C43.2437 146.592 41.493 146.802 40.4523 147.066C39.4115 147.329 37.3772 147.856 35.958 148.172C34.5387 148.54 32.7883 149.225 32.0786 149.804C31.4163 150.331 30.5648 150.752 30.1862 150.752C28.152 150.752 21.8127 157.125 19.9676 160.969C18.7849 163.445 18.6903 164.129 18.6903 169.975C18.6903 176.611 18.643 176.4 21.5761 182.457C21.9546 183.247 23.1846 184.616 24.2727 185.406C26.6381 187.196 31.369 189.725 32.3625 189.725C32.741 189.725 33.1195 189.988 33.214 190.251C33.3087 190.567 35.816 191.041 38.7964 191.357C41.777 191.673 44.6155 192.147 45.0412 192.41C45.5144 192.674 46.8391 192.884 47.9745 192.884C49.1571 192.884 50.1981 193.095 50.3397 193.358C50.4819 193.621 52.8471 193.99 55.5912 194.201C58.3349 194.412 60.7004 194.78 60.8425 195.044C60.9844 195.307 62.0725 195.518 63.3024 195.57C64.5326 195.57 66.4722 195.781 67.6548 196.044C73.8998 197.361 75.4608 198.309 76.9747 201.469C77.5896 202.838 77.5896 203.154 76.9274 204.734C75.65 207.736 72.6696 210.158 69.7365 210.58C65.7152 211.106 53.6043 210.632 52.8944 209.842C52.6107 209.526 51.9485 209.21 51.4753 209.21C50.3397 209.21 47.3594 205.682 46.9335 203.733L46.5551 202.101L31.7948 201.942L17.0344 201.837V203.312C17.0344 205.05 18.501 210 19.731 212.528C21.8127 216.689 29.4767 222.903 33.6398 223.746C34.5387 223.957 35.4849 224.273 35.7215 224.483C36.2417 224.957 41.6349 226.063 45.1833 226.485C49.1571 226.959 75.3189 227.169 76.1232 226.801C76.5488 226.537 77.5423 226.327 78.2995 226.274C81.2325 226.063 86.8149 224.905 87.2881 224.431C87.5246 224.167 88.1395 223.957 88.7074 223.957C89.2277 223.957 91.5932 222.851 94.006 221.429C99.4938 218.321 103.373 213.845 105.029 208.842C105.928 205.998 106.07 204.839 105.881 200.152C105.644 194.886 105.407 193.938 103.278 189.566C102.238 187.407 97.5067 183.72 93.8166 182.193C88.6126 180.087 87.4773 179.771 83.8345 179.402C81.9422 179.191 80.2864 178.823 80.1445 178.612C80.0026 178.349 78.7725 178.138 77.3533 178.138C75.934 178.138 74.704 177.927 74.5621 177.717C74.42 177.453 71.1557 176.98 67.3237 176.611C63.4918 176.242 59.8961 175.768 59.3759 175.505C58.8554 175.241 57.4833 174.926 56.3007 174.767C49.0625 173.872 47.0756 173.345 46.0348 171.924C43.7639 168.974 44.8993 165.024 48.6839 162.654C50.671 161.391 61.1736 160.864 65.526 161.759C69.0269 162.496 72.3858 164.708 73.3793 166.973C74.9878 170.449 74.0417 170.291 88.8966 170.133C102.427 169.975 102.427 169.975 102.569 168.816C102.995 165.709 99.8722 159.179 96.2767 155.597C93.8639 153.227 92.9651 152.595 88.7074 150.542C87.6665 150.015 86.4838 149.383 86.1052 149.172C85.6796 148.962 84.4023 148.593 83.2668 148.435C82.0841 148.224 80.6175 147.856 79.9551 147.54C76.4542 146.118 47.3121 144.748 46.6024 146.013Z" fill="#009E00"/>
<path fill-rule="evenodd" clip-rule="evenodd" d="M365.899 149.882C365.426 151.092 364.859 152.512 364.623 152.985C364.387 153.511 364.198 154.195 364.198 154.563C364.198 154.931 363.867 155.931 363.442 156.772C363.064 157.667 361.789 161.086 360.608 164.399C359.38 167.766 358.057 171.448 357.632 172.605C357.159 173.762 356.498 175.55 356.215 176.55C355.506 178.601 352.672 186.439 351.68 188.911C351.302 189.752 350.168 192.961 349.082 196.012C348.042 199.062 346.531 203.165 345.775 205.217C345.019 207.215 343.507 211.371 342.468 214.422C340.673 219.524 339.681 222.101 338.595 224.626C338.311 225.205 338.311 225.783 338.547 226.046C338.784 226.309 344.027 226.467 350.263 226.414L361.553 226.257L363.112 221.786C363.915 219.313 364.623 216.841 364.623 216.263C364.718 213.948 365.096 213.896 380.307 213.896H394.809L395.848 217.42C396.415 219.419 397.313 222.259 397.832 223.732L398.777 226.52H410.303C417.389 226.52 421.829 226.309 421.829 225.994C421.829 225.415 420.223 220.734 419.231 218.367C418.428 216.473 413.185 201.798 411.626 197.064C410.964 195.17 410.162 192.908 409.831 192.067C409.453 191.172 407.989 187.07 406.477 182.862C405.013 178.654 403.501 174.498 403.17 173.657C402.793 172.763 401.517 169.238 400.289 165.767C399.108 162.295 397.738 158.508 397.265 157.351C396.793 156.194 396.084 154.195 395.707 152.88C395.329 151.565 394.714 149.882 394.384 149.04L393.817 147.62H380.307H366.796L365.899 149.882ZM381.157 169.712C381.488 170.711 381.818 172.079 381.96 172.71C382.054 173.341 382.905 176.024 383.802 178.654C384.7 181.336 385.456 183.809 385.456 184.177C385.456 184.545 386.4 187.648 387.581 191.067C388.715 194.486 389.518 197.484 389.329 197.695C389.093 197.958 384.889 198.063 379.976 198.011L371.048 197.853L371.095 196.538C371.19 195.17 377.378 174.972 378.323 172.973C378.606 172.342 378.795 171.658 378.748 171.448C378.559 170.606 379.881 166.977 380.259 167.45C380.448 167.66 380.873 168.713 381.157 169.712Z" fill="white"/>
<path fill-rule="evenodd" clip-rule="evenodd" d="M126.886 148.866C126.744 149.288 126.602 166.839 126.602 187.815C126.602 219.28 126.696 226.026 127.265 226.5C127.738 226.922 138.774 227.027 168.09 226.975L208.3 226.817L208.442 218.542L208.584 210.215L180.973 210.109L153.361 209.951L153.219 202.942L153.077 195.984H178.936C199.254 195.984 204.748 195.826 204.748 195.299C204.795 193.771 204.795 180.384 204.795 179.804C204.748 179.277 199.112 179.119 179.078 179.013L153.361 178.855V172.004V165.152L180.973 164.994L208.584 164.888L208.442 156.561L208.3 148.286L167.759 148.128C131.054 148.023 127.17 148.075 126.886 148.866Z" fill="#009E00"/>
<path fill-rule="evenodd" clip-rule="evenodd" d="M236.906 148.405C236.432 148.932 236.527 224.702 236.954 225.493C237.286 225.967 239.704 226.126 247.527 226.02L257.673 225.862L257.91 198.18C258.053 179.567 258.289 170.762 258.622 171.289C259.19 172.185 259.996 173.873 261.419 176.825C261.988 177.985 262.794 179.515 263.221 180.253C263.647 180.991 264.453 182.573 265.07 183.785C266.445 186.422 269.764 192.802 270.57 194.225C270.902 194.805 271.613 196.335 272.182 197.653C272.751 198.971 273.509 200.395 273.841 200.816C274.173 201.238 275.026 202.873 275.785 204.455C276.496 205.984 277.35 207.618 277.587 208.145C277.871 208.62 278.914 210.624 279.957 212.68C281 214.684 282.091 216.74 282.328 217.267C282.613 217.742 283.608 219.64 284.556 221.538C285.552 223.384 286.643 225.176 286.974 225.546C287.496 225.967 291.858 226.126 303 226.02L318.362 225.862V187.107V148.352L308.073 148.194L297.737 148.089V175.454C297.737 190.534 297.548 202.978 297.358 203.136C296.931 203.4 296.03 201.871 293.707 196.862C293.043 195.386 291.621 192.538 290.625 190.534C289.582 188.478 287.97 185.156 287.022 183.153C286.121 181.096 284.936 178.618 284.367 177.616C282.802 174.716 281.048 171.236 279.815 168.653C279.199 167.334 277.776 164.382 276.638 162.061C272.182 152.992 270.475 149.407 270.332 148.721C270.19 148.247 266.492 148.089 253.691 148.089C244.635 148.089 237.049 148.247 236.906 148.405Z" fill="white"/>
<path fill-rule="evenodd" clip-rule="evenodd" d="M0 267.521V287.263L66.5506 287.368L133.054 287.526L135.701 289C141.278 292.001 142.46 293.948 142.365 299.844C142.365 301.95 142.082 304.003 141.846 304.266C141.562 304.582 141.326 305.266 141.326 305.845C141.326 307.425 138.348 313.9 133.763 322.375C132.865 324.06 131.731 326.324 131.163 327.376C130.643 328.429 129.178 331.377 127.855 333.852C126.578 336.326 124.924 339.484 124.215 340.853C123.553 342.222 122.797 343.59 122.561 343.853C122.372 344.169 121.757 345.328 121.19 346.486C120.151 348.644 119.442 350.065 116.605 355.435C115.66 357.172 113.817 360.805 112.399 363.542C111.028 366.227 109.657 368.859 109.421 369.333C109.137 369.806 108.098 371.807 107.058 373.86C106.018 375.86 104.978 377.914 104.694 378.387C104.458 378.861 103.607 380.388 102.898 381.809C102.189 383.23 101.055 385.336 100.441 386.494C99.8259 387.652 98.786 389.811 98.077 391.337C97.4152 392.812 96.7064 394.233 96.4228 394.391C96.1866 394.549 95.5248 395.707 95.0048 396.917C94.4849 398.128 93.5396 400.076 92.8778 401.234C92.2161 402.392 91.0345 404.656 90.2311 406.235C88.8603 409.025 86.3552 413.816 84.5589 417.027C84.0864 417.87 83.1411 419.765 82.432 421.239C81.723 422.66 81.0142 423.976 80.8723 424.134C80.6831 424.292 80.0688 425.45 79.4542 426.766C77.7998 430.451 76.7601 432.452 76.0511 433.399C75.3893 434.294 75.2477 434.136 78.2726 436.558C78.9816 437.137 80.636 438.505 81.9593 439.664C84.1337 441.611 85.8351 442.98 87.8204 444.401C88.2458 444.665 89.002 445.349 89.522 445.875C90.5146 446.823 92.6889 448.665 95.1939 450.719C95.903 451.298 98.4081 453.403 100.724 455.351C103.087 457.352 105.262 458.825 105.545 458.72C106.018 458.562 106.632 457.404 109.894 450.982C110.555 449.666 111.595 447.665 112.257 446.507C112.871 445.349 114.053 443.085 114.857 441.506C116.464 438.19 117.882 435.557 119.961 431.767C120.765 430.293 121.947 428.082 122.514 426.766C123.081 425.45 123.837 424.081 124.121 423.713C124.452 423.397 124.877 422.555 125.066 421.87C125.208 421.239 125.822 419.975 126.39 419.133C127.004 418.238 127.571 417.185 127.76 416.764C127.949 416.343 128.942 414.448 129.982 412.553C131.022 410.657 132.392 407.92 133.054 406.498C133.716 405.025 135.087 402.34 136.126 400.497C137.166 398.707 138.017 397.075 138.017 396.917C138.017 396.76 138.49 395.918 139.104 395.022C139.671 394.075 140.617 392.285 141.231 390.969C141.798 389.653 142.838 387.652 143.452 386.494C144.067 385.336 145.201 383.23 145.91 381.809C146.619 380.388 147.47 378.861 147.707 378.387C147.99 377.914 149.125 375.702 150.306 373.439C151.488 371.123 153 368.175 153.709 366.858C154.418 365.49 155.647 363.068 156.404 361.489C157.207 359.91 158.389 357.646 159.003 356.488C160.516 353.803 162.879 349.17 164.202 346.486C164.722 345.328 165.337 344.275 165.479 344.117C165.62 343.959 166.282 342.801 166.897 341.485C168.22 338.905 169.213 337.01 171.718 332.272C172.663 330.535 173.797 328.271 174.223 327.271C174.696 326.271 175.168 325.323 175.31 325.165C175.499 325.007 176.066 323.955 176.587 322.796C179.233 317.374 180.652 314.637 181.077 314.374C181.312 314.163 181.832 313.268 182.211 312.373C182.589 311.426 183.677 309.267 184.575 307.53C185.424 305.793 186.701 303.319 187.411 302.002C188.073 300.686 189.159 298.686 189.821 297.528C190.435 296.37 191.523 294.159 192.183 292.685C192.845 291.158 193.602 289.789 193.838 289.631C194.075 289.421 194.69 288.315 195.21 287.105C195.776 285.894 196.816 283.841 197.573 282.525C198.329 281.209 199.51 278.945 200.172 277.524C201.259 275.102 203.386 271.049 205.656 266.995C206.127 266.1 207.167 264.1 207.971 262.521C208.775 260.94 210.003 258.414 210.806 256.992C211.563 255.518 212.462 253.781 212.79 253.044C213.122 252.307 213.879 250.991 214.447 250.097C215.06 249.202 215.393 248.307 215.203 248.149C215.06 247.939 166.566 247.78 107.436 247.78H0V267.521Z" fill="#009E00"/>
<path fill-rule="evenodd" clip-rule="evenodd" d="M231.36 248.097C231.124 248.361 232.4 250.939 233.722 252.783C234.053 253.257 234.95 255.1 237.879 261.208C238.588 262.63 239.249 263.946 239.438 264.104C239.579 264.262 240.052 265.052 240.43 265.947C240.808 266.789 241.28 267.632 241.422 267.79C241.611 267.948 242.272 269.212 242.98 270.686C243.689 272.108 245.389 275.425 246.807 278.058C248.224 280.638 249.735 283.639 250.208 284.64C250.68 285.64 251.577 287.431 252.239 288.589C252.9 289.747 253.75 291.274 254.034 292.012C255.498 295.224 256.207 296.54 256.868 297.382C257.246 297.909 258.049 299.436 258.663 300.805C259.277 302.174 260.316 304.28 260.93 305.439C261.591 306.597 262.678 308.598 263.339 309.915C264 311.231 264.709 312.653 264.992 313.074C265.228 313.495 266.834 316.602 268.535 319.919C270.283 323.237 271.889 326.343 272.078 326.764C272.314 327.186 273.117 328.713 273.873 330.187C274.629 331.609 275.668 333.662 276.187 334.663C278.643 339.296 280.769 343.509 281.714 345.457C282.233 346.616 282.848 347.669 282.989 347.827C283.131 347.985 283.698 348.88 284.17 349.88C284.642 350.828 285.729 352.987 286.579 354.619C287.429 356.252 288.658 358.621 289.319 359.938C289.98 361.254 290.972 363.15 291.539 364.15C292.059 365.151 293.145 367.309 293.948 368.889C294.704 370.469 295.554 372.049 295.79 372.417C296.026 372.786 296.688 373.997 297.254 375.155C297.821 376.314 298.766 378.157 299.38 379.262C299.947 380.368 301.175 382.685 302.073 384.423C304.34 388.846 305.946 392.005 307.174 394.269C308.969 397.639 312.417 404.379 313.031 405.748C313.362 406.485 314.259 408.118 315.062 409.434C315.818 410.751 316.81 412.646 317.235 413.647C317.708 414.647 318.416 416.069 318.841 416.806C319.314 417.543 320.164 419.176 320.825 420.492C321.486 421.808 322.478 423.704 322.998 424.704C323.565 425.705 324.982 428.548 326.257 431.023C327.485 433.498 328.714 435.92 328.997 436.394C329.233 436.868 330.225 438.658 331.123 440.343C332.02 442.028 333.107 444.082 333.579 444.977C334.051 445.819 335.09 447.873 335.893 449.453C336.649 451.032 337.83 453.296 338.444 454.455C339.105 455.613 339.861 457.14 340.192 457.878C340.522 458.615 340.806 459.299 340.9 459.405C340.995 459.563 341.656 459.036 346.333 454.982C347.797 453.665 349.167 452.612 349.403 452.612C349.639 452.612 350.111 452.138 350.489 451.559C350.867 450.98 351.34 450.506 351.576 450.506C351.812 450.506 352.709 449.874 353.559 449.084C356.252 446.504 357.102 445.767 357.386 445.767C357.575 445.767 358.33 445.188 359.181 444.398C363.196 440.764 366.03 438.395 366.408 438.395C366.644 438.395 367.116 437.921 367.494 437.342C367.872 436.763 368.392 436.289 368.722 436.289C369.006 436.289 369.62 435.815 370.045 435.288C370.848 434.341 370.801 434.13 368.911 430.391C367.825 428.285 366.597 425.81 366.124 424.968C363.337 419.86 361.212 415.753 360.361 413.91C359.842 412.752 358.803 410.751 358 409.434C357.244 408.118 356.205 406.064 355.685 404.853C355.165 403.642 354.504 402.484 354.268 402.326C354.032 402.168 353.323 400.799 352.615 399.272C351.103 395.849 349.828 393.374 349.119 392.374C348.552 391.636 348.033 390.583 345.057 384.423C344.396 382.948 343.215 380.737 342.459 379.42C341.703 378.104 340.522 375.998 339.861 374.681C338.397 371.785 336.366 367.783 333.248 361.833C331.973 359.306 330.556 356.62 330.178 355.83C327.816 351.197 326.21 348.037 325.927 347.827C325.785 347.669 325.266 346.721 324.84 345.721C324.368 344.72 323.187 342.351 322.148 340.455C321.156 338.559 319.219 334.874 317.897 332.293C316.574 329.661 315.299 327.186 315.062 326.764C310.292 318.392 305.237 307.335 304.954 304.544C304.907 304.386 304.765 304.017 304.576 303.807C304.34 303.596 304.198 301.7 304.198 299.594C304.198 294.065 305.615 291.906 311.284 288.747L313.409 287.536L379.917 287.378L446.378 287.273V267.527V247.781H339.011C279.919 247.781 231.502 247.939 231.36 248.097Z" fill="white"/>
<path fill-rule="evenodd" clip-rule="evenodd" d="M222.629 273.126C222.298 273.495 222.062 274.019 222.062 274.388C222.062 274.757 221.92 275.125 221.73 275.231C221.494 275.283 220.88 276.335 220.36 277.494C217.949 282.439 216.2 285.913 215.964 286.174C215.822 286.332 215.207 287.385 214.687 288.542C214.12 289.7 212.891 292.173 211.898 294.067C210.906 295.962 209.677 298.435 209.109 299.592C208.542 300.75 207.691 302.433 207.172 303.275C206.604 304.17 205.895 305.432 205.612 306.169C205.044 307.379 203.957 309.589 200.554 316.167C199.892 317.482 198.71 319.692 198.001 321.165C197.245 322.586 195.921 325.217 194.976 326.953C194.03 328.689 192.801 331.162 192.234 332.478C191.667 333.793 190.91 335.214 190.58 335.635C189.918 336.529 187.885 340.423 186.845 342.843C186.467 343.738 185.947 344.632 185.664 344.843C185.427 345.001 184.766 346.263 184.245 347.632C183.725 348.947 183.111 350.21 182.922 350.368C182.733 350.526 182.118 351.578 181.598 352.735C181.031 353.893 179.802 356.366 178.809 358.26C177.817 360.154 176.399 362.838 175.69 364.311C173.704 368.205 172.144 371.309 170.301 374.835C166.992 381.306 166.188 382.78 164.912 385.358C164.203 386.779 162.69 389.673 161.65 391.777C160.563 393.829 159.287 396.355 158.767 397.302C158.294 398.249 157.112 400.564 156.12 402.459C155.127 404.353 153.756 407.036 153 408.509C152.291 409.93 151.109 412.193 150.447 413.508C149.786 414.824 148.509 417.297 147.611 419.033C144.113 425.873 143.546 426.978 142.553 428.767C142.033 429.767 140.946 431.924 140.142 433.503C139.386 435.081 138.488 436.712 138.252 437.08C137.968 437.501 137.306 438.712 136.786 439.817C134.848 443.763 132.674 448.025 131.303 450.603C130.547 452.024 129.365 454.286 128.703 455.602C128.041 456.917 126.765 459.39 125.867 461.127C122.794 467.125 122.274 468.335 122.511 469.072C122.652 469.493 123.078 469.809 123.456 469.809C123.787 469.809 125.583 470.545 127.332 471.44C129.128 472.334 131.114 473.281 131.776 473.597C132.437 473.913 133.619 474.439 134.375 474.807C135.179 475.228 136.975 476.017 138.393 476.649C139.811 477.28 142.081 478.332 143.357 479.069C144.68 479.753 145.909 480.332 146.146 480.332C146.524 480.332 147.469 480.753 152.007 483.015L154.512 484.226L155.647 482.647C156.262 481.805 157.254 480.174 157.774 479.016C158.72 476.964 160.799 472.86 163.21 468.23C165.337 464.178 167.606 459.653 169.072 456.549C170.348 453.813 171.577 451.498 173.231 448.499C173.799 447.446 177.108 441.079 178.668 437.975C179.093 437.08 179.944 435.344 180.558 434.029C181.126 432.713 181.787 431.398 182.024 431.135C182.496 430.556 184.245 427.188 186.798 421.927C187.743 420.033 189.161 417.297 189.918 415.876C190.721 414.403 191.856 412.14 192.47 410.772C193.038 409.404 193.794 407.983 194.03 407.615C194.314 407.247 194.976 406.036 195.543 404.931C197.859 400.301 202.113 391.988 204.43 387.568C205.47 385.516 207.03 382.359 207.833 380.623C209.677 376.676 210.102 375.887 212.04 373.151C213.789 370.678 218.658 367.205 220.407 367.205C221.021 367.205 221.683 366.942 221.872 366.626C222.062 366.205 222.298 366.205 222.676 366.626C222.96 366.942 223.763 367.205 224.472 367.205C226.174 367.205 231.468 372.677 234.163 377.202C235.297 379.149 236.243 380.991 236.243 381.254C236.243 381.57 236.573 382.096 236.999 382.464C237.377 382.885 238.039 383.885 238.417 384.779C239.552 387.358 240.828 389.831 241.537 390.778C241.915 391.251 242.482 392.251 242.813 392.988C243.428 394.356 244.373 396.197 247.256 401.459C248.202 403.248 249.005 404.879 249.005 405.089C249.005 405.3 249.336 405.773 249.762 406.142C250.14 406.563 250.802 407.563 251.18 408.457C251.558 409.352 252.362 410.93 252.929 412.035C253.496 413.087 254.536 414.982 255.198 416.244C258.696 422.716 259.878 424.873 260.208 425.347C260.398 425.61 260.918 426.557 261.296 427.452C261.674 428.294 262.147 429.135 262.288 429.293C262.43 429.451 263.234 430.872 264.037 432.45C264.888 434.029 266.448 436.87 267.441 438.712C268.481 440.501 269.332 442.237 269.332 442.448C269.332 442.658 269.663 443.132 270.088 443.5C270.466 443.921 271.128 444.921 271.506 445.815C272.64 448.393 273.917 450.866 274.626 451.814C275.004 452.287 275.571 453.287 275.902 454.023C276.186 454.76 276.989 456.286 277.604 457.444C278.218 458.601 279.164 460.39 279.731 461.39C280.251 462.389 281.196 464.178 281.858 465.336C282.473 466.494 283.465 468.283 283.985 469.282C284.505 470.282 285.403 471.966 285.971 473.071C288.381 477.333 290.367 481.174 290.698 482.016C291.076 483.068 293.156 483.278 294.952 482.489C295.566 482.226 297.552 481.384 299.349 480.595C301.192 479.806 303.319 478.806 304.17 478.438C304.973 478.017 305.824 477.701 306.061 477.701C306.25 477.701 307.005 477.385 307.667 476.964C308.33 476.596 309.511 476.123 310.267 475.912C311.024 475.702 312.3 475.228 313.057 474.807C315.562 473.544 317.736 472.545 320.005 471.703C321.233 471.229 322.653 470.65 323.078 470.387C323.55 470.124 324.543 469.651 325.253 469.335L326.576 468.756L325.489 467.072C323.219 463.284 322.795 462.495 322.085 460.811C321.659 459.811 320.573 457.706 319.674 456.128C318.775 454.55 317.642 452.392 317.216 451.393C316.79 450.393 316.27 449.446 316.083 449.288C315.941 449.13 315.42 448.183 314.947 447.183C314.474 446.183 313.954 445.236 313.814 445.079C313.624 444.921 313.009 443.763 312.442 442.448C311.827 441.132 310.646 438.764 309.747 437.186C308.85 435.607 307.715 433.45 307.289 432.45C306.818 431.45 306.297 430.346 306.108 430.082C305.257 428.925 303.508 425.768 302.751 424.032C302.325 423.032 301.192 420.875 300.293 419.296C299.396 417.718 298.213 415.455 297.694 414.297C297.174 413.14 295.992 410.877 295.094 409.299C294.195 407.72 293.108 405.563 292.636 404.563C292.21 403.563 291.596 402.353 291.265 401.932C290.698 401.143 289.232 398.354 287.672 395.092C287.2 394.092 285.971 391.777 284.978 390.041C283.985 388.252 282.898 386.095 282.52 385.148C282.142 384.253 281.717 383.517 281.575 383.517C281.433 383.517 280.913 382.569 280.44 381.412C279.967 380.254 279.447 379.307 279.306 379.307C279.164 379.307 278.738 378.57 278.36 377.676C277.982 376.729 276.895 374.571 275.902 372.782C274.909 371.046 273.633 368.52 273.066 367.205C272.451 365.89 271.837 364.732 271.695 364.574C271.506 364.416 271.08 363.522 270.702 362.575C270.324 361.68 269.946 360.891 269.757 360.891C269.615 360.891 269.001 359.786 268.386 358.365C267.819 356.997 267.015 355.524 266.684 355.103C266.354 354.682 265.314 352.63 264.321 350.631C263.375 348.579 262.336 346.579 262.005 346.158C261.674 345.737 260.587 343.738 259.594 341.686C257.561 337.634 257.514 337.582 255.151 333.162C254.252 331.478 253.402 329.847 253.26 329.584C253.118 329.268 252.267 327.69 251.369 326.006C249.242 322.06 246.831 317.324 246.075 315.64C245.791 314.904 245.271 313.956 244.94 313.536C244.609 313.115 243.947 311.852 243.38 310.747C242.813 309.694 241.962 307.906 241.395 306.8C240.828 305.748 240.166 304.538 239.882 304.17C239.646 303.801 238.89 302.381 238.275 301.013C236.762 297.75 235.864 295.962 233.784 292.384C232.839 290.753 231.61 288.489 231.09 287.385C230.523 286.279 229.577 284.438 228.916 283.281C227.545 280.808 225.465 276.756 224.283 274.283C223.338 272.231 223.385 272.283 222.629 273.126Z" fill="white"/>
<path d="M224 25C209.413 25 195.424 30.3663 185.109 39.9183C174.795 49.4704 169 62.4258 169 75.9344C169 89.443 174.795 102.398 185.109 111.95C195.424 121.503 209.259 127 223.846 127L224 75.9344V25Z" fill="#009E00"/>
<path d="M224.5 127C239.22 127 253.336 121.627 263.744 112.062C274.153 102.498 280 89.526 280 76C280 62.474 274.153 49.5019 263.744 39.9376C253.336 30.3732 239.22 25 224.5 25L224.5 76L224.5 127Z" fill="white"/>
<path d="M122.461 470.789L224 273.667L223.825 305.106V318.32L224 367.167L155.391 487.052L122.461 470.789Z" fill="#009E00"/>
</svg>
